<svg aria-hidden="true" style="position: absolute; width: 0; height: 0; overflow: hidden;" version="1.1" xmlns="http://www.w3.org/2000/svg" xmlns:xlink="http://www.w3.org/1999/xlink">
<defs>
<symbol id="icon-check-square" viewBox="0 0 72 72">
<title>check-square</title>
<path d="M68.1 9.9c-1.2-1.2-3-1.2-4.2 0l-27.9 27.9-6.9-6.9c-1.2-1.2-3-1.2-4.2 0s-1.2 3 0 4.2l9 9c0.6 0.6 1.5 0.9 2.1 0.9s1.5-0.3 2.1-0.9l30-30c1.2-1.2 1.2-3 0-4.2z"></path>
<path d="M63 33c-1.8 0-3 1.2-3 3v21c0 1.8-1.2 3-3 3h-42c-1.8 0-3-1.2-3-3v-42c0-1.8 1.2-3 3-3h33c1.8 0 3-1.2 3-3s-1.2-3-3-3h-33c-5.1 0-9 3.9-9 9v42c0 5.1 3.9 9 9 9h42c5.1 0 9-3.9 9-9v-21c0-1.8-1.2-3-3-3z"></path>
</symbol>
<symbol id="icon-edit" viewBox="0 0 72 72">
<title>edit</title>
<path d="M60 41.1c-1.8 0-3 1.2-3 3v15.9c0 1.8-1.2 3-3 3h-42c-1.8 0-3-1.2-3-3v-42c0-1.8 1.2-3 3-3h15.9c1.8 0 3-1.2 3-3s-1.2-3-3-3h-15.9c-5.1 0-9 3.9-9 9v42c0 5.1 3.9 9 9 9h42c5.1 0 9-3.9 9-9v-15.9c0-1.8-1.2-3-3-3z"></path>
<path d="M68.1 15.9l-12-12c-1.2-1.2-3-1.2-4.2 0l-30 30c-0.6 0.6-0.9 1.2-0.9 2.1v12c0 1.8 1.2 3 3 3h12c0.9 0 1.5-0.3 2.1-0.9l30-30c1.2-1.2 1.2-3 0-4.2zM34.8 45h-7.8v-7.8l27-27 7.8 7.8-27 27z"></path>
</symbol>
<symbol id="icon-file" viewBox="0 0 72 72">
<title>file</title>
<path d="M62.7 25.8c-0.3-0.3-0.3-0.6-0.6-0.9l-21-21c-0.3-0.3-0.6-0.6-0.9-0.6-0.3-0.3-0.9-0.3-1.2-0.3h-21c-5.1 0-9 3.9-9 9v48c0 5.1 3.9 9 9 9h36c5.1 0 9-3.9 9-9v-33c0-0.3 0-0.9-0.3-1.2zM42 13.2l10.8 10.8h-10.8v-10.8zM54 63h-36c-1.8 0-3-1.2-3-3v-48c0-1.8 1.2-3 3-3h18v18c0 1.8 1.2 3 3 3h18v30c0 1.8-1.2 3-3 3z"></path>
</symbol>
<symbol id="icon-message-circle" viewBox="0 0 72 72">
<title>message-circle</title>
<path d="M66 32.7c-0.9-14.4-12.3-26.1-27-26.7h-1.5c0 0 0 0 0 0-4.5 0-8.7 0.9-12.6 3-9.9 4.8-15.9 14.7-15.9 25.5 0 3.9 0.9 8.1 2.4 11.7l-5.4 15.9c-0.3 1.2 0 2.4 0.6 3 0.9 0.6 1.5 0.9 2.4 0.9 0.3 0 0.6 0 0.9-0.3l15.9-5.4c3.6 1.5 7.5 2.4 11.7 2.4 10.8 0 20.7-6 25.5-15.6 2.1-3.9 3-8.4 3-12.9v-1.5zM60 34.5c0 0 0 0 0 0 0 3.6-0.9 6.9-2.4 10.2-3.9 7.8-11.4 12.3-20.1 12.3-3.6 0-6.9-0.9-9.9-2.4-0.6-0.3-1.5-0.3-2.4-0.3l-11.4 3.9 3.9-11.4c0.3-0.9 0.3-1.5-0.3-2.4-1.5-3-2.4-6.6-2.4-9.9 0-8.7 4.8-16.2 12.6-20.1 3-1.5 6.6-2.4 9.9-2.4 0 0 0 0 0 0h1.2c11.4 0.6 20.4 9.6 21.3 21v1.5z"></path>
</symbol>
<symbol id="icon-plus" viewBox="0 0 72 72">
<title>plus</title>
<path d="M57 33h-18v-18c0-1.8-1.2-3-3-3s-3 1.2-3 3v18h-18c-1.8 0-3 1.2-3 3s1.2 3 3 3h18v18c0 1.8 1.2 3 3 3s3-1.2 3-3v-18h18c1.8 0 3-1.2 3-3s-1.2-3-3-3z"></path>
</symbol>
<symbol id="icon-plus-square" viewBox="0 0 72 72">
<title>plus-square</title>
<path d="M57 6h-42c-5.1 0-9 3.9-9 9v42c0 5.1 3.9 9 9 9h42c5.1 0 9-3.9 9-9v-42c0-5.1-3.9-9-9-9zM60 57c0 1.8-1.2 3-3 3h-42c-1.8 0-3-1.2-3-3v-42c0-1.8 1.2-3 3-3h42c1.8 0 3 1.2 3 3v42z"></path>
<path d="M48 33h-9v-9c0-1.8-1.2-3-3-3s-3 1.2-3 3v9h-9c-1.8 0-3 1.2-3 3s1.2 3 3 3h9v9c0 1.8 1.2 3 3 3s3-1.2 3-3v-9h9c1.8 0 3-1.2 3-3s-1.2-3-3-3z"></path>
</symbol>
<symbol id="icon-star" viewBox="0 0 72 72">
<title>star</title>
<path d="M69 27c-0.3-1.2-1.2-1.8-2.4-2.1l-19.2-2.7-8.7-17.4c-0.9-2.1-4.5-2.1-5.4 0l-8.7 17.1-18.9 3c-1.2 0-2.1 0.9-2.7 2.1-0.3 1.2 0 2.4 0.9 3l13.8 13.5-3.3 19.2c-0.3 1.2 0.3 2.4 1.2 3s2.1 0.9 3.3 0.3l17.1-9 17.1 9c0.6 0 0.9 0 1.5 0s1.2-0.3 1.8-0.6c0.9-0.6 1.5-1.8 1.2-3l-3.3-19.2 13.8-13.5c0.9-0.6 1.2-1.8 0.9-2.7zM48.9 40.2c-0.6 0.9-0.9 1.8-0.9 2.7l2.4 14.7-13.2-6.9c-0.9-0.6-1.8-0.6-2.7 0l-13.2 6.9 2.7-14.7c0-0.9-0.3-1.8-0.9-2.7l-10.8-10.2 14.7-2.1c0.9 0 1.8-0.9 2.4-1.5l6.6-13.5 6.6 13.2c0.3 0.9 1.2 1.5 2.4 1.5l14.7 2.1-10.8 10.5z"></path>
</symbol>
<symbol id="icon-watch" viewBox="0 0 72 72">
<title>watch</title>
<path d="M60 36c0-6.9-3-12.9-7.5-17.4l-0.9-10.5c-0.6-4.5-4.2-8.1-9-8.1 0 0 0 0 0 0h-13.2c-4.5 0-8.4 3.6-9 8.1l-0.9 10.5c-4.5 4.2-7.5 10.5-7.5 17.4s3 13.2 7.5 17.4l0.9 10.5c0.6 4.5 4.5 8.1 9 8.1 0 0 0 0 0 0h12.9c0 0 0 0 0 0 4.8 0 8.4-3.6 9-8.1l0.9-10.2c4.8-4.5 7.8-10.8 7.8-17.7zM26.4 8.7c0-1.5 1.5-2.7 3-2.7h13.2c1.5 0 3 1.2 3 2.7l0.6 5.4c-3.3-1.2-6.6-2.1-10.2-2.1s-6.9 0.9-9.9 2.1l0.3-5.4zM18 36c0-9.9 8.1-18 18-18s18 8.1 18 18-8.1 18-18 18-18-8.1-18-18zM45.6 63.3c0 1.5-1.5 2.7-3 2.7 0 0 0 0 0 0h-13.2c0 0 0 0 0 0-1.5 0-2.7-1.2-3-2.7l-0.6-5.4c3 1.5 6.3 2.1 9.9 2.1s6.9-0.9 9.9-2.1v5.4z"></path>
<path d="M38.4 42.6c0.6 0.6 1.5 0.9 2.1 0.9s1.5-0.3 2.1-0.9c1.2-1.2 1.2-3 0-4.2l-3.6-3.6v-7.8c0-1.8-1.2-3-3-3s-3 1.2-3 3v9c0 0.9 0.3 1.5 0.9 2.1l4.5 4.5z"></path>
</symbol>
<symbol id="icon-x-square" viewBox="0 0 72 72">
<title>x-square</title>
<path d="M57 6h-42c-5.1 0-9 3.9-9 9v42c0 5.1 3.9 9 9 9h42c5.1 0 9-3.9 9-9v-42c0-5.1-3.9-9-9-9zM60 57c0 1.8-1.2 3-3 3h-42c-1.8 0-3-1.2-3-3v-42c0-1.8 1.2-3 3-3h42c1.8 0 3 1.2 3 3v42z"></path>
<path d="M47.1 24.9c-1.2-1.2-3-1.2-4.2 0l-6.9 6.9-6.9-6.9c-1.2-1.2-3-1.2-4.2 0s-1.2 3 0 4.2l6.9 6.9-6.9 6.9c-1.2 1.2-1.2 3 0 4.2 0.6 0.6 1.2 0.9 2.1 0.9s1.5-0.3 2.1-0.9l6.9-6.9 6.9 6.9c0.6 0.6 1.5 0.9 2.1 0.9s1.5-0.3 2.1-0.9c1.2-1.2 1.2-3 0-4.2l-6.9-6.9 6.9-6.9c1.2-1.2 1.2-3 0-4.2z"></path>
</symbol>
<symbol id="icon-close" viewBox="0 0 72 72">
<title>close</title>
<path d="M56.953 19.266l-16.734 16.734 16.734 16.734-4.219 4.219-16.734-16.734-16.734 16.734-4.219-4.219 16.734-16.734-16.734-16.734 4.219-4.219 16.734 16.734 16.734-16.734z"></path>
</symbol>
</defs>
</svg>
